<svg version="1.1" xmlns="http://www.w3.org/2000/svg" viewBox="0 0 653.9556950076028 251.0016498332801" width="653.9556950076028" height="251.0016498332801">
  <!-- svg-source:excalidraw -->
  
  <defs>
    <style>
      @font-face {
        font-family: "Virgil";
        src: url("https://excalidraw.com/Virgil.woff2");
      }
      @font-face {
        font-family: "Cascadia";
        src: url("https://excalidraw.com/Cascadia.woff2");
      }
    </style>
  </defs>
  <rect x="0" y="0" width="653.9556950076028" height="251.0016498332801" fill="#ffffff"></rect><g stroke-linecap="round"><g transform="translate(506.4976806923055 -13.208603589635118) rotate(89.99999999999994 -0.722291849553585 138.70942850627512)"><path d="M-3.32 2.17 C33.76 18.07, 78.74 42.93, 109.61 72.49 M-1.73 0.53 C42.05 26.22, 81.92 51.58, 113.92 70.54 M114.78 70.76 C111.55 99, 111.76 124.59, 108.67 203.8 M111.81 68.76 C114.45 123.38, 114.96 174.02, 112.57 207.58 M113.13 209.72 C72.89 232.49, 32.44 256.41, -0.26 274.37 M112.31 205.77 C82.79 224.3, 54.99 242.66, -0.04 276.89 M3.12 274.91 C-41.59 251.93, -82.17 224.48, -115.57 211.02 M0.76 276.79 C-36.97 253.89, -77.12 229.12, -110.67 206.16 M-116.22 210.74 C-112.12 168.51, -118.16 130.06, -114.08 72.11 M-113.83 206.24 C-114.1 154.96, -114.69 97.08, -111.43 70.63 M-110.28 71.1 C-72.74 49.64, -44.15 29.5, 0.96 2.01 M-110.77 69.07 C-70.79 44.67, -28.26 17.54, -0.22 1.97" stroke="#000000" stroke-width="2" fill="none"></path></g></g><g transform="translate(443 109.78900741844211) rotate(0 58 18)"><text x="58" y="26" font-family="Virgil, Segoe UI Emoji" font-size="28px" fill="#000000" text-anchor="middle" style="white-space: pre;" direction="ltr">DOMAIN</text></g><g stroke-linecap="round"><g transform="translate(411.00000000000034 26.78900741844234) rotate(178.57243157838064 19.985280248101787 96.40173460667063)" fill-rule="evenodd"><path d="M3.27 2.58 L38.33 57.3 L58.67 83.91 L59.51 91.21 L52.25 118.49 L32.48 146.76 L1.02 188.68 L-3.5 198.27 L-9.79 194.75 L-12.04 194.26 L-12.92 180.47 L-13.42 167.67 L27.26 115.25 L27.25 95.85 L25.99 77.11 L-5.35 41.22 L-15.86 26.74 L-19.55 15.23 L-10.04 5.95 L0.06 -3.96" stroke="none" stroke-width="0" fill="#12b886" fill-rule="evenodd"></path><path d="M1.52 -2.77 C10.35 13.55, 55.99 63.48, 55.23 95.63 C54.46 127.78, 8.09 177.8, -3.08 190.13 C-14.24 202.46, -17.63 185.61, -11.73 169.61 C-5.84 153.6, 33.59 117.75, 32.31 94.1 C31.02 70.46, -14.33 43.25, -19.42 27.74 C-24.51 12.23, -1.7 5.36, 1.77 1.05 M-1.1 1.9 C8.34 17.62, 59.5 59.78, 60.12 91.51 C60.75 123.23, 14.31 180.07, 2.63 192.23 C-9.04 204.38, -14.41 180.73, -9.92 164.45 C-5.44 148.17, 30.79 117.67, 29.54 94.54 C28.29 71.41, -13.19 41.7, -17.4 25.69 C-21.62 9.67, 1.39 2.37, 4.25 -1.56" stroke="#000000" stroke-width="2" fill="none"></path></g></g><g transform="translate(402.5 57.78900741844211) rotate(303.2011664407173 26.5 18)"><text x="26.5" y="26" font-family="Virgil, Segoe UI Emoji" font-size="28px" fill="#000000" text-anchor="middle" style="white-space: pre;" direction="ltr">API</text></g><g transform="translate(412.5 157.7890074184421) rotate(231.4234123370935 26.5 18)"><text x="26.5" y="26" font-family="Virgil, Segoe UI Emoji" font-size="28px" fill="#000000" text-anchor="middle" style="white-space: pre;" direction="ltr">API</text></g><g stroke-linecap="round"><g transform="translate(232 125.78900741844211) rotate(0 51.79571974322198 0.45835849036672016)"><path d="M1.63 -2.08 C18.62 -1.24, 82.3 1.7, 99.13 2.27 M-0.93 2.97 C17.21 3.31, 87.42 -0.43, 104.52 -1.51" stroke="#000000" stroke-width="2" fill="none"></path></g><g transform="translate(232 125.78900741844211) rotate(0 51.79571974322198 0.45835849036672016)"><path d="M73.98 7.64 C85.96 9.91, 90.13 3.95, 101.06 -0.46 M78.3 11.95 C88.16 3.77, 98.38 2.8, 105.77 -0.76" stroke="#000000" stroke-width="2" fill="none"></path></g><g transform="translate(232 125.78900741844211) rotate(0 51.79571974322198 0.45835849036672016)"><path d="M72.83 -12.85 C84.64 -6.47, 89.04 -8.31, 101.06 -0.46 M77.15 -8.54 C87.58 -9.29, 98.22 -2.81, 105.77 -0.76" stroke="#000000" stroke-width="2" fill="none"></path></g></g><g stroke-linecap="round" transform="translate(10 67.78900741844211) rotate(0 94.5 53)"><path d="M-2.67 3.24 C40.28 4.67, 74.69 -0.66, 190.06 2.53 M1.64 1.29 C61.81 -1.07, 128.93 -1.31, 189.76 -1.4 M185.38 -3.95 C190.75 38.43, 190.73 72.47, 188.02 107.96 M189.29 -0.17 C191.75 41.87, 188.71 82.97, 189.99 106.21 M188.74 103.37 C121.17 108.54, 53.04 107.14, -3.96 104.93 M188.96 105.89 C131.46 105, 69.91 108.34, -1.04 105.06 M-3.28 109.28 C2.35 70.73, -0.51 34.47, -0.41 2.99 M1.61 104.41 C0.45 70.44, 0.05 29.01, 1.49 1.43" stroke="#000000" stroke-width="2" fill="none"></path></g><g transform="translate(18 80.78900741844211) rotate(0 86 36)"><text x="86" y="26" font-family="Virgil, Segoe UI Emoji" font-size="28px" fill="#000000" text-anchor="middle" style="white-space: pre;" direction="ltr">UI</text><text x="86" y="62" font-family="Virgil, Segoe UI Emoji" font-size="28px" fill="#000000" text-anchor="middle" style="white-space: pre;" direction="ltr">FRAMEWORK</text></g></svg>