<svg version="1.1" xmlns="http://www.w3.org/2000/svg" viewBox="0 0 655.3477867549761 250.01552491169014" width="655.3477867549761" height="250.01552491169014">
  <!-- svg-source:excalidraw -->
  
  <defs>
    <style>
      @font-face {
        font-family: "Virgil";
        src: url("https://excalidraw.com/Virgil.woff2");
      }
      @font-face {
        font-family: "Cascadia";
        src: url("https://excalidraw.com/Cascadia.woff2");
      }
    </style>
  </defs>
  <rect x="0" y="0" width="655.3477867549761" height="250.01552491169014" fill="#ffffff"></rect><g stroke-linecap="round"><g transform="translate(506.4976806923055 -13.202270037334074) rotate(89.99999999999994 -0.7451859433203936 138.21003249317914)"><path d="M0.77 -0.04 C26.95 16.59, 62.34 34.26, 109.77 65.52 M-1.73 -1.39 C44.68 28.88, 86.94 54.3, 113.74 70.81 M114.23 65.43 C110.16 113.9, 111.72 158.33, 108.99 208.31 M114.26 69.02 C113.17 98.74, 111.05 125.39, 110.47 205.75 M108.91 207.58 C78.78 221.99, 49.6 248.78, -0.04 275.78 M112.65 209.57 C78.24 230.69, 45.14 250.66, -1.01 277.22 M2.48 277.81 C-29.17 254.78, -59.45 236.14, -111.83 204.87 M1.43 275.54 C-37.27 251.8, -77.84 225.5, -113.89 208.27 M-115.75 210.23 C-111.8 159.58, -113.9 108.85, -108.75 67.8 M-112.99 207.86 C-115.1 176.15, -115.23 144.96, -111.6 71.23 M-110.35 72.25 C-83.36 50.75, -49.79 34.33, 1.41 0.01 M-111.45 69.8 C-71.64 39.67, -26.59 13.85, -1.47 1.89" stroke="#000000" stroke-width="2" fill="none"></path></g></g><g transform="translate(443 109.79534097074293) rotate(0 58 18)"><text x="58" y="26" font-family="Virgil, Segoe UI Emoji" font-size="28px" fill="#000000" text-anchor="middle" style="white-space: pre;" direction="ltr">DOMAIN</text></g><g stroke-linecap="round"><g transform="translate(411.00000000000045 26.795340970743382) rotate(178.57243157838064 20.79786072675597 96.63445148974256)"><path d="M-0.03 -2.42 C9.31 13.25, 56.95 62.41, 56.33 94.52 C55.71 126.63, 8.39 177.56, -3.77 190.24 C-15.93 202.92, -22.57 186.78, -16.61 170.59 C-10.65 154.39, 32.46 117.32, 32 93.06 C31.53 68.81, -14.12 40.54, -19.42 25.06 C-24.72 9.59, -2.66 4.76, 0.19 0.21 M-3.48 2.44 C6.74 17.15, 60.99 58.13, 61.83 89.79 C62.67 121.45, 14.77 179.7, 1.56 192.4 C-11.65 205.09, -22.03 182.53, -17.45 165.96 C-12.87 149.38, 29.06 115.56, 29.06 92.93 C29.07 70.31, -12.86 46.16, -17.4 30.19 C-21.95 14.23, -1.52 2.89, 1.82 -2.85" stroke="#000000" stroke-width="2" fill="none"></path></g></g><g transform="translate(402.5 57.79534097074293) rotate(303.2011664407173 26.5 18)"><text x="26.5" y="26" font-family="Virgil, Segoe UI Emoji" font-size="28px" fill="#000000" text-anchor="middle" style="white-space: pre;" direction="ltr">API</text></g><g transform="translate(412.5 157.79534097074293) rotate(231.4234123370935 26.5 18)"><text x="26.5" y="26" font-family="Virgil, Segoe UI Emoji" font-size="28px" fill="#000000" text-anchor="middle" style="white-space: pre;" direction="ltr">API</text></g><g stroke-linecap="round"><g transform="translate(232 125.79534097074293) rotate(0 51.02185928568241 -0.530686022933196)"><path d="M0.52 -2.77 C17.46 -2.93, 82.06 -3.24, 99.24 -2.61 M-2.65 1.9 C15.42 2.14, 87.05 0.58, 104.69 -0.4" stroke="#000000" stroke-width="2" fill="none"></path></g><g transform="translate(232 125.79534097074293) rotate(0 51.02185928568241 -0.530686022933196)"><path d="M72.93 8.34 C79.22 12.04, 90.32 3.17, 101.23 -3.17 M75.29 12.31 C86.96 8.39, 92.83 3.3, 105.67 -2.31" stroke="#000000" stroke-width="2" fill="none"></path></g><g transform="translate(232 125.79534097074293) rotate(0 51.02185928568241 -0.530686022933196)"><path d="M72.2 -12.17 C78.41 -4.09, 89.66 -8.58, 101.23 -3.17 M74.56 -8.2 C86.48 -5.81, 92.58 -4.61, 105.67 -2.31" stroke="#000000" stroke-width="2" fill="none"></path></g></g><g stroke-linecap="round" transform="translate(10 67.79534097074293) rotate(0 94.5 53)"><path d="M0.46 -3.74 L187.37 3.53 L187.55 103.21 L2.5 104.35" stroke="none" stroke-width="0" fill="#12b886"></path><path d="M-2.51 -3.73 C49.13 5.16, 88.09 0.27, 186.23 0.28 M1.46 1.56 C58.67 1.91, 115.17 3.98, 187.09 -0.3 M185.71 0.56 C185.71 29.56, 186.22 64.58, 188.55 108.82 M187.19 -1.99 C187.99 36.53, 186.76 73.76, 188.92 105.77 M188.96 104.78 C151.16 107.11, 115.15 109.54, 3.65 107.41 M187.99 106.23 C125.52 105.42, 63.01 106.4, 0.4 106.86 M0.45 103.13 C1.04 80.65, -2.87 62.04, -2.92 3.82 M-1.61 106.52 C-0.23 70.83, -2.52 36.97, 1.24 -0.82" stroke="#000000" stroke-width="2" fill="none"></path></g><g transform="translate(18 80.79534097074293) rotate(0 86 36)"><text x="86" y="26" font-family="Virgil, Segoe UI Emoji" font-size="28px" fill="#000000" text-anchor="middle" style="white-space: pre;" direction="ltr">UI</text><text x="86" y="62" font-family="Virgil, Segoe UI Emoji" font-size="28px" fill="#000000" text-anchor="middle" style="white-space: pre;" direction="ltr">FRAMEWORK</text></g></svg>