<svg version="1.1" xmlns="http://www.w3.org/2000/svg" viewBox="0 0 679.5537662226707 248.61546160373433" width="679.5537662226707" height="248.61546160373433">
  <!-- svg-source:excalidraw -->
  
  <defs>
    <style>
      @font-face {
        font-family: "Virgil";
        src: url("https://excalidraw.com/Virgil.woff2");
      }
      @font-face {
        font-family: "Cascadia";
        src: url("https://excalidraw.com/Cascadia.woff2");
      }
    </style>
  </defs>
  <rect x="0" y="0" width="679.5537662226707" height="248.61546160373433" fill="#ffffff"></rect><g stroke-linecap="round"><g transform="translate(152.05144691497605 -13.463182520892133) rotate(89.99999999999994 -0.9606886571273776 137.77091332275924)"><path d="M0.49 3.26 C45.03 22.46, 89.94 49.65, 108.95 72.52 M-0.54 -0.15 C37.51 22.62, 77.41 48.03, 112.87 69.02 M112.83 70.24 C108.38 108.72, 108.77 148.69, 112.84 204.76 M113.19 67.95 C110.1 112.86, 113.56 157.67, 111.16 209.48 M108.52 204.86 C70.6 233.01, 34.35 257.7, 3.85 277.26 M113.35 205.76 C87.86 223.41, 64.88 237.79, 1.45 277.12 M-2.67 276.84 C-41.1 253.88, -82.77 224.14, -112.62 208.2 M0.48 278.86 C-39.09 252.23, -81.21 224.21, -112.52 208.09 M-113.47 204 C-108.34 167.82, -113.81 129.85, -115.27 68.43 M-110.36 207.32 C-113.28 173.96, -112.89 141.42, -113.13 69.59 M-109.75 65.87 C-84.3 54.69, -57.95 34.88, -1.64 -3.32 M-113.7 69.73 C-69.97 39.19, -25.65 15.24, 1.11 -0.61" stroke="#000000" stroke-width="2" fill="none"></path></g></g><g transform="translate(88.55376622267067 109.53442848718504) rotate(0 58 18)"><text x="58" y="26" font-family="Virgil, Segoe UI Emoji" font-size="28px" fill="#000000" text-anchor="middle" style="white-space: pre;" direction="ltr">DOMAIN</text></g><g stroke-linecap="round"><g transform="translate(212.55376622267067 31.53442848718504) rotate(0 20.377119028324785 97.33075548106478)" fill-rule="evenodd"><path d="M2.15 0.5 L41.72 53.92 L53.89 77.65 L55.03 92.06 L48.22 121.53 L31.23 153.64 L1.54 189.14 L-3.05 191.61 L-9.57 195.37 L-16.03 189.12 L-18.45 182.61 L-16.63 165.72 L25.9 110.9 L33.44 93.39 L22.09 72.9 L-9.8 37.18 L-13.63 27.9 L-19.27 19.17 L-9.65 8.34 L-0.22 -3.87" stroke="none" stroke-width="0" fill="#12b886" fill-rule="evenodd"></path><path d="M0.26 -2.02 C10.39 13.68, 59.98 64.33, 59.73 96.49 C59.48 128.65, 11.15 178.71, -1.24 190.95 C-13.63 203.2, -19.96 185.6, -14.61 169.96 C-9.25 154.31, 30.86 120.9, 30.87 97.09 C30.88 73.28, -9.65 42.98, -14.55 27.09 C-19.45 11.2, -0.6 5.98, 1.48 1.73 M-3.05 3.06 C6.97 17.81, 58.46 61.09, 58.44 92.83 C58.42 124.57, 8.95 181.47, -3.18 193.5 C-15.31 205.52, -19.44 180.71, -14.35 164.99 C-9.27 149.26, 28.03 122.54, 27.33 99.15 C26.64 75.77, -14.61 41.29, -18.53 24.68 C-22.45 8.07, 0.22 3.34, 3.8 -0.5" stroke="#000000" stroke-width="2" fill="none"></path></g></g><g transform="translate(214.5537662226708 76.53442848718504) rotate(54.11786275379577 26 18)"><text x="26" y="26" font-family="Virgil, Segoe UI Emoji" font-size="28px" fill="#000000" text-anchor="middle" style="white-space: pre;" direction="ltr">SPI</text></g><g transform="translate(206.55376622267056 156.53442848718504) rotate(124.07719528013068 26 18)"><text x="26" y="26" font-family="Virgil, Segoe UI Emoji" font-size="28px" fill="#000000" text-anchor="middle" style="white-space: pre;" direction="ltr">SPI</text></g><g stroke-linecap="round"><g transform="translate(447.5537662226709 120.5344284871851) rotate(0 -59.751985391229596 0.7350935674749053)"><path d="M1.24 2.34 C-18.52 2.66, -100.4 2.84, -120.74 2.49 M-1.53 1.13 C-20.19 0.67, -96.37 -1.55, -115.29 -1.17" stroke="#000000" stroke-width="2" fill="none"></path></g><g transform="translate(447.5537662226709 120.5344284871851) rotate(0 -59.751985391229596 0.7350935674749053)"><path d="M-83.68 -13.69 C-89.71 -11.34, -99.25 -8.23, -117.13 -1.23 M-87.57 -10.44 C-95.83 -9.01, -105.12 -3.63, -114.49 -2.05" stroke="#000000" stroke-width="2" fill="none"></path></g><g transform="translate(447.5537662226709 120.5344284871851) rotate(0 -59.751985391229596 0.7350935674749053)"><path d="M-83.84 6.83 C-89.92 4.61, -99.42 3.16, -117.13 -1.23 M-87.73 10.08 C-95.98 5.29, -105.23 4.45, -114.49 -2.05" stroke="#000000" stroke-width="2" fill="none"></path></g></g><g stroke-linecap="round" transform="translate(480.5537662226707 62.53442848718504) rotate(0 94.5 53)"><path d="M-3.72 3.73 C51.96 -0.5, 106.21 3.97, 187.93 -3.8 M-0.03 0.02 C43.3 0.46, 87.23 -0.03, 188.49 -0.18 M188.05 -0.84 C187.6 40.86, 185.53 80.84, 190.49 108.08 M188.21 -1.02 C191.02 38.9, 191.87 77.79, 190.46 106.39 M188.32 106.17 C150.09 102.47, 104.89 104.66, -2.71 105.34 M190.56 107.79 C131.68 105, 76.44 106.28, 0.4 104.53 M0.01 102.99 C-1.89 78.17, -1.05 60.29, -3.11 2.18 M1.8 107.69 C-1.14 77.05, -0.5 44.6, -1.79 -0.44" stroke="#000000" stroke-width="2" fill="none"></path></g><g transform="translate(495.5537662226707 98.53442848718504) rotate(0 69 18)"><text x="69" y="26" font-family="Virgil, Segoe UI Emoji" font-size="28px" fill="#000000" text-anchor="middle" style="white-space: pre;" direction="ltr">ADAPTER</text></g></svg>