<svg version="1.1" xmlns="http://www.w3.org/2000/svg" viewBox="0 0 989.7942455954155 250.03872333745994" width="989.7942455954155" height="250.03872333745994">
  <!-- svg-source:excalidraw -->
  
  <defs>
    <style>
      @font-face {
        font-family: "Virgil";
        src: url("https://excalidraw.com/Virgil.woff2");
      }
      @font-face {
        font-family: "Cascadia";
        src: url("https://excalidraw.com/Cascadia.woff2");
      }
    </style>
  </defs>
  <rect x="0" y="0" width="989.7942455954155" height="250.03872333745994" fill="#ffffff"></rect><g stroke-linecap="round"><g transform="translate(840 -13.302417817365153) rotate(89.99999999999994 0.8557677883654833 138.321779486095)"><path d="M-2.35 2.27 C39.78 24.17, 83.47 50.5, 110.2 71.75 M1.05 0.74 C28.78 20.43, 57.83 36.98, 111.38 71.21 M113.93 72.28 C115.59 122.7, 112.02 168.28, 115.88 207.06 M110.6 68.54 C112.76 121.11, 111.89 169.55, 114.08 206.46 M115.09 210.26 C85.07 226.76, 51.39 242.54, -0.94 277.26 M113.46 209.5 C70.25 234.26, 28.23 262.52, 0.47 275.69 M-2.79 274.65 C-44.6 254.65, -82.05 224.33, -111.81 208.09 M-1.65 275.85 C-36.64 253.18, -78.4 230.29, -113.81 207.67 M-112.08 211 C-109.43 170.4, -114.68 128.07, -109.78 70.4 M-114.16 205.96 C-112.94 179.47, -113.14 151.2, -111.17 70.18 M-108.65 71.98 C-92.55 53.79, -66.63 44.86, -0.44 1.67 M-112.58 68.21 C-80.44 52.85, -53.65 33.59, -0.98 -0.62" stroke="#000000" stroke-width="2" fill="none"></path></g></g><g transform="translate(776.5023193076945 109.69519319071185) rotate(0 58 18)"><text x="58" y="26" font-family="Virgil, Segoe UI Emoji" font-size="28px" fill="#000000" text-anchor="middle" style="white-space: pre;" direction="ltr">DOMAIN</text></g><g stroke-linecap="round"><g transform="translate(744.502319307695 26.695193190712303) rotate(178.57243157838064 17.90031220889682 96.77892475378474)"><path d="M1.59 -0.57 C11.38 15.77, 57.14 64.51, 56.73 96.36 C56.31 128.21, 10.6 178.79, -0.89 190.54 C-12.39 202.3, -17.89 183.27, -12.25 166.88 C-6.6 150.5, 33.51 115.38, 32.96 92.24 C32.42 69.1, -9.7 43.36, -15.52 28.04 C-21.34 12.71, -4.18 5.26, -1.95 0.29 M-0.99 -3.35 C8.5 12.39, 54.07 59.93, 53.8 92.63 C53.52 125.34, 8.11 180.15, -2.64 192.86 C-13.4 205.57, -16.24 185.75, -10.71 168.88 C-5.18 152.02, 32.11 115.45, 30.56 91.66 C29.01 67.87, -14.69 41.88, -20.03 26.14 C-25.37 10.41, -5.31 2.21, -1.5 -2.73" stroke="#000000" stroke-width="2" fill="none"></path></g></g><g transform="translate(736.0023193076945 57.69519319071185) rotate(303.2011664407173 26.5 18)"><text x="26.5" y="26" font-family="Virgil, Segoe UI Emoji" font-size="28px" fill="#000000" text-anchor="middle" style="white-space: pre;" direction="ltr">API</text></g><g transform="translate(746.0023193076945 157.69519319071185) rotate(231.4234123370935 26.5 18)"><text x="26.5" y="26" font-family="Virgil, Segoe UI Emoji" font-size="28px" fill="#000000" text-anchor="middle" style="white-space: pre;" direction="ltr">API</text></g><g stroke-linecap="round"><g transform="translate(565.5023193076945 125.69519319071185) rotate(0 52.67726948186754 -0.3118973761492043)"><path d="M2.36 0.11 C19.05 0.61, 83.29 1.44, 99.54 1.75 M0.2 -2.31 C17.87 -2.48, 88.94 -2.27, 105.15 -2.3" stroke="#000000" stroke-width="2" fill="none"></path></g><g transform="translate(565.5023193076945 125.69519319071185) rotate(0 52.67726948186754 -0.3118973761492043)"><path d="M77.11 5.85 C87.44 3, 95.63 -2.21, 107.26 -0.82 M75.69 7.04 C85.39 7.34, 90.61 3.91, 105.98 -0.79" stroke="#000000" stroke-width="2" fill="none"></path></g><g transform="translate(565.5023193076945 125.69519319071185) rotate(0 52.67726948186754 -0.3118973761492043)"><path d="M77.12 -14.67 C87.26 -11.78, 95.45 -11.25, 107.26 -0.82 M75.71 -13.48 C85.44 -8.46, 90.66 -7.16, 105.98 -0.79" stroke="#000000" stroke-width="2" fill="none"></path></g></g><g stroke-linecap="round" transform="translate(343.5023193076945 67.69519319071185) rotate(0 94.5 53)"><path d="M-2.08 2.51 C46.5 2.66, 92.25 1.97, 190.48 -2.79 M-0.9 1.96 C59.98 3.08, 117.56 3.21, 190.52 1.17 M192.59 -0.68 C190.96 40.69, 186.85 74.66, 187.59 104.64 M190.8 -1.29 C186.46 38.29, 187.16 78.63, 190.26 106.82 M188.06 106.26 C127.66 105.15, 64.42 108.06, 3.51 105.37 M189.47 104.69 C144.59 110.66, 98.23 107.44, -1.17 104.96 M0.48 106.34 C0.71 68.13, -0.87 27.09, -2.29 3.18 M-1.53 105.92 C1.78 75.67, 3.45 45.14, 1.63 1.53" stroke="#000000" stroke-width="2" fill="none"></path></g><g transform="translate(351.5023193076945 80.69519319071185) rotate(0 86 36)"><text x="86" y="26" font-family="Virgil, Segoe UI Emoji" font-size="28px" fill="#000000" text-anchor="middle" style="white-space: pre;" direction="ltr">UI</text><text x="86" y="62" font-family="Virgil, Segoe UI Emoji" font-size="28px" fill="#000000" text-anchor="middle" style="white-space: pre;" direction="ltr">FRAMEWORK</text></g><g stroke-linecap="round" transform="translate(10 69.19526287494011) rotate(0 102.5 54)"><path d="M157.63 6.61 C169.51 9.14, 181.08 15.87, 188.68 22.31 C196.28 28.75, 201.1 37.96, 203.22 45.22 C205.34 52.48, 204.45 58.83, 201.38 65.86 C198.32 72.9, 193.59 81.69, 184.83 87.44 C176.06 93.19, 161.32 96.82, 148.8 100.36 C136.27 103.91, 123.12 108.01, 109.69 108.71 C96.27 109.42, 81.13 107.02, 68.23 104.59 C55.33 102.16, 42.36 99.01, 32.31 94.13 C22.25 89.25, 13.6 82.42, 7.91 75.31 C2.21 68.2, -2.33 59.25, -1.89 51.45 C-1.45 43.66, 4.02 35.05, 10.54 28.55 C17.06 22.05, 26.47 16.86, 37.23 12.47 C47.99 8.08, 61.5 4.41, 75.11 2.19 C88.72 -0.03, 103.59 -2.48, 118.88 -0.85 C134.17 0.77, 158 9.42, 166.84 11.95 C175.68 14.47, 173.37 13.94, 171.91 14.3 M88.13 -1.13 C100.7 -3.61, 116.01 -2.71, 129 -1 C142 0.7, 155.31 4.22, 166.11 9.1 C176.92 13.98, 187.63 21.49, 193.82 28.29 C200.01 35.09, 202.57 42.25, 203.25 49.9 C203.92 57.56, 201.96 67.32, 197.88 74.21 C193.79 81.1, 188.22 86, 178.74 91.25 C169.26 96.49, 154.11 102.96, 141.02 105.67 C127.93 108.37, 114.07 107.99, 100.2 107.49 C86.32 107, 71 105.69, 57.78 102.69 C44.57 99.68, 29.89 94.85, 20.91 89.44 C11.92 84.02, 7.36 77.53, 3.86 70.19 C0.36 62.85, -1.7 52.91, -0.07 45.41 C1.56 37.91, 6.05 30.96, 13.62 25.18 C21.19 19.4, 33.83 14.94, 45.36 10.73 C56.89 6.53, 75.99 1.87, 82.8 -0.02 C89.61 -1.92, 85.24 -1.56, 86.23 -0.63" stroke="none" stroke-width="0" fill="#12b886"></path><path d="M173.73 16.32 C184.5 20.44, 192.58 25.23, 197.59 31.49 C202.6 37.76, 203.99 46.19, 203.81 53.89 C203.64 61.59, 202.43 70.83, 196.54 77.67 C190.65 84.52, 179.11 90.19, 168.46 94.98 C157.82 99.78, 145.74 104.34, 132.67 106.45 C119.59 108.56, 104.1 108.84, 90 107.62 C75.9 106.41, 59.72 102.97, 48.08 99.15 C36.44 95.34, 28.16 90.47, 20.14 84.74 C12.13 79.01, 3.15 71.93, -0.02 64.78 C-3.2 57.62, -2.31 48.98, 1.09 41.79 C4.49 34.61, 11.52 27.49, 20.37 21.67 C29.22 15.85, 41.74 10.2, 54.21 6.88 C66.67 3.56, 81.36 2.58, 95.17 1.74 C108.98 0.9, 122.37 -1.55, 137.07 1.85 C151.77 5.24, 174.36 17.97, 183.37 22.1 C192.38 26.22, 192.34 26.07, 191.15 26.59 M19.14 22.83 C25.92 16.85, 37.95 13.12, 50.32 8.86 C62.69 4.61, 79.33 -1.23, 93.36 -2.67 C107.38 -4.11, 121.05 -2.88, 134.48 0.23 C147.91 3.34, 164 11.08, 173.93 15.98 C183.87 20.88, 188.86 23.05, 194.1 29.61 C199.34 36.17, 205.1 47.4, 205.37 55.34 C205.65 63.29, 201.66 71.13, 195.74 77.3 C189.82 83.47, 180.22 87.74, 169.86 92.34 C159.5 96.95, 146.89 102.01, 133.59 104.93 C120.29 107.85, 103.42 110.88, 90.06 109.84 C76.69 108.8, 65.03 102.96, 53.38 98.69 C41.74 94.42, 28.89 89.95, 20.2 84.2 C11.52 78.45, 4.75 70.67, 1.28 64.17 C-2.19 57.68, -3.34 51.86, -0.63 45.22 C2.07 38.58, 14.1 28.2, 17.5 24.34 C20.91 20.49, 18.2 22.31, 19.78 22.09" stroke="#000000" stroke-width="2" fill="none"></path></g><g transform="translate(15 97.19526287494011) rotate(0 97.5 26)"><text x="97.5" y="19" font-family="Virgil, Segoe UI Emoji" font-size="20px" fill="#000000" text-anchor="middle" style="white-space: pre;" direction="ltr">WEB</text><text x="97.5" y="45" font-family="Virgil, Segoe UI Emoji" font-size="20px" fill="#000000" text-anchor="middle" style="white-space: pre;" direction="ltr">COMPONENTS</text></g><g stroke-linecap="round" transform="translate(366 79.19526287494011) rotate(0 13 13)"><path d="M10.91 0.63 C13.39 -0.01, 16.98 -0.1, 19.42 1.35 C21.86 2.8, 24.73 6.64, 25.56 9.32 C26.38 12, 25.51 14.79, 24.37 17.42 C23.24 20.04, 20.9 23.78, 18.76 25.05 C16.62 26.33, 14.28 25.54, 11.54 25.05 C8.8 24.55, 4.31 23.92, 2.31 22.08 C0.32 20.23, -0.56 16.7, -0.43 13.97 C-0.3 11.25, 1.03 7.97, 3.09 5.71 C5.15 3.44, 10.36 1.42, 11.92 0.39 C13.49 -0.63, 12.43 -0.68, 12.49 -0.44 M13.6 -1.02 C16.35 -1.32, 19.78 0.96, 21.84 2.97 C23.91 4.98, 25.81 8.29, 25.98 11.04 C26.15 13.79, 24.23 17.25, 22.86 19.48 C21.49 21.71, 20.36 23.7, 17.76 24.42 C15.16 25.14, 10.2 24.77, 7.27 23.79 C4.33 22.81, 1.06 20.91, 0.13 18.54 C-0.8 16.17, 0.9 12.25, 1.71 9.58 C2.52 6.91, 3.14 4.15, 4.99 2.52 C6.85 0.88, 11.28 -0.09, 12.84 -0.23 C14.4 -0.37, 14.21 1.5, 14.36 1.67" stroke="none" stroke-width="0" fill="#12b886"></path><path d="M14.36 0.89 C16.85 1.01, 19.12 2.86, 21.19 4.73 C23.25 6.6, 26.42 9.4, 26.76 12.12 C27.1 14.83, 24.85 18.63, 23.23 21.01 C21.61 23.39, 19.51 25.72, 17.05 26.41 C14.59 27.09, 10.96 26.55, 8.47 25.13 C5.97 23.72, 3.34 20.42, 2.07 17.93 C0.81 15.45, 0.38 12.93, 0.87 10.22 C1.35 7.51, 2.34 3.39, 4.97 1.66 C7.6 -0.07, 14.21 -0.37, 16.64 -0.18 C19.06 0.01, 19.66 2.51, 19.53 2.78 M8.28 -0.12 C10.99 -1.75, 15.2 -1.23, 17.52 -0.5 C19.84 0.24, 20.59 1.79, 22.19 4.3 C23.8 6.8, 26.89 11.37, 27.14 14.53 C27.4 17.69, 25.63 21.13, 23.73 23.26 C21.83 25.38, 18.85 27.31, 15.74 27.27 C12.64 27.23, 7.64 24.81, 5.07 23 C2.5 21.2, 0.93 18.98, 0.31 16.45 C-0.32 13.91, -0.04 10.21, 1.32 7.81 C2.67 5.41, 7.61 2.98, 8.45 2.03 C9.29 1.08, 6.65 2.11, 6.38 2.11" stroke="#000000" stroke-width="2" fill="none"></path></g><g stroke-linecap="round" transform="translate(487 78.19526287494011) rotate(0 14.5 14.5)"><path d="M8.56 1.91 C11.38 0.68, 15.9 0.78, 19.05 1.63 C22.2 2.48, 25.72 4.68, 27.46 7.02 C29.2 9.36, 29.88 12.58, 29.49 15.68 C29.1 18.79, 27.52 23.53, 25.14 25.65 C22.77 27.76, 18.35 28.37, 15.25 28.38 C12.15 28.38, 9.13 27.5, 6.52 25.67 C3.92 23.84, 0.52 20.38, -0.37 17.4 C-1.27 14.42, -1 10.77, 1.14 7.79 C3.28 4.81, 9.92 0.59, 12.47 -0.47 C15.01 -1.54, 16.42 1.09, 16.4 1.39 M10.91 0.71 C13.73 -0.43, 16.56 -0.04, 19.06 1.02 C21.55 2.08, 24.21 4.15, 25.89 7.06 C27.56 9.96, 29.48 15.47, 29.09 18.48 C28.7 21.49, 25.89 23.16, 23.56 25.12 C21.23 27.08, 18.06 30.18, 15.12 30.24 C12.17 30.3, 8.47 27.9, 5.87 25.46 C3.27 23.02, 0.38 18.84, -0.46 15.61 C-1.3 12.38, -0.88 8.51, 0.84 6.06 C2.55 3.62, 8.15 1.74, 9.82 0.94 C11.48 0.15, 10.67 0.85, 10.81 1.29" stroke="none" stroke-width="0" fill="#12b886"></path><path d="M17.32 0.73 C20.04 1.02, 23.14 2.23, 24.99 4.36 C26.83 6.48, 28.36 10.18, 28.4 13.48 C28.45 16.78, 27.27 21.7, 25.24 24.16 C23.21 26.62, 19.36 27.88, 16.22 28.26 C13.09 28.65, 8.89 27.79, 6.45 26.46 C4.01 25.13, 2.7 22.9, 1.6 20.26 C0.5 17.62, -0.96 13.8, -0.14 10.61 C0.69 7.42, 3.09 2.5, 6.55 1.14 C10.01 -0.21, 17.49 1.73, 20.61 2.47 C23.72 3.21, 25.09 5.37, 25.24 5.6 M20.59 1.26 C23.48 2.52, 26.42 5.63, 27.93 8.6 C29.44 11.58, 30.69 16.06, 29.64 19.13 C28.6 22.2, 24.6 25.47, 21.66 27.03 C18.73 28.58, 15.14 29.05, 12.03 28.45 C8.93 27.85, 5.12 25.43, 3.03 23.42 C0.94 21.41, -0.38 19.23, -0.52 16.4 C-0.65 13.58, 0.2 9.14, 2.21 6.49 C4.22 3.85, 8.53 1.26, 11.55 0.51 C14.56 -0.23, 18.57 2.05, 20.32 2.03 C22.07 2, 22.02 0.46, 22.03 0.36" stroke="#000000" stroke-width="2" fill="none"></path></g><g stroke-linecap="round" transform="translate(362.5 148.6952628749401) rotate(0 10 10)"><path d="M8.93 0.91 C11.04 0.64, 13.71 0.47, 15.5 1.39 C17.29 2.31, 19.11 4.28, 19.69 6.43 C20.27 8.58, 19.69 12.21, 18.96 14.28 C18.22 16.36, 17.26 17.88, 15.3 18.86 C13.34 19.84, 9.32 20.59, 7.22 20.17 C5.13 19.76, 3.95 18.27, 2.74 16.38 C1.53 14.5, 0.1 11.21, -0.04 8.86 C-0.17 6.51, 0.43 3.74, 1.92 2.29 C3.42 0.83, 7.52 0.36, 8.94 0.13 C10.37 -0.09, 10.33 0.73, 10.47 0.94 M14.43 0.82 C16.11 1.43, 17.24 4.36, 18.18 6.38 C19.12 8.4, 20.38 10.84, 20.06 12.94 C19.75 15.05, 18.16 17.89, 16.31 19 C14.46 20.12, 11.11 20, 8.96 19.63 C6.8 19.26, 5 18.26, 3.37 16.77 C1.75 15.29, -0.63 12.59, -0.78 10.72 C-0.93 8.84, 0.97 7.01, 2.49 5.5 C4.01 3.99, 6.28 2.43, 8.34 1.65 C10.41 0.88, 13.77 1.06, 14.88 0.85 C16 0.65, 15.03 0.48, 15.03 0.43" stroke="none" stroke-width="0" fill="#12b886"></path><path d="M13.8 0.85 C15.52 1.71, 18.01 3.91, 18.99 6.02 C19.97 8.12, 20.15 11.56, 19.67 13.49 C19.19 15.42, 17.82 16.63, 16.11 17.59 C14.39 18.56, 11.64 19.49, 9.38 19.27 C7.11 19.05, 4.22 17.75, 2.53 16.27 C0.84 14.79, -0.75 12.46, -0.77 10.39 C-0.79 8.31, 0.99 5.43, 2.43 3.82 C3.86 2.21, 5.41 0.95, 7.83 0.72 C10.25 0.49, 15.08 1.52, 16.95 2.44 C18.81 3.36, 19.29 6.05, 19.01 6.24 M4.63 -0.31 C6.36 -1.55, 11.06 -1.1, 13.53 -0.3 C15.99 0.5, 18.14 2.46, 19.45 4.5 C20.75 6.54, 21.71 9.7, 21.38 11.95 C21.05 14.21, 19.4 16.46, 17.46 18.02 C15.51 19.57, 11.81 21.22, 9.72 21.29 C7.62 21.35, 6.6 19.65, 4.88 18.42 C3.17 17.19, 0.15 16.18, -0.58 13.9 C-1.31 11.61, -0.52 6.98, 0.49 4.69 C1.51 2.4, 4.6 0.87, 5.51 0.15 C6.41 -0.57, 5.94 0.23, 5.92 0.36" stroke="#000000" stroke-width="2" fill="none"></path></g><g stroke-linecap="round" transform="translate(457.5 148.6952628749401) rotate(0 11.5 11.5)"><path d="M5.02 1.39 C7.19 0.07, 12.01 -1.11, 14.61 -0.64 C17.22 -0.17, 19.15 2.27, 20.65 4.24 C22.16 6.2, 23.81 8.55, 23.65 11.14 C23.49 13.74, 21.31 17.96, 19.68 19.82 C18.05 21.68, 16.37 22.17, 13.88 22.3 C11.39 22.43, 6.79 21.72, 4.73 20.6 C2.67 19.49, 2.04 17.92, 1.5 15.62 C0.97 13.32, 0.62 9.32, 1.51 6.8 C2.4 4.28, 5.91 1.46, 6.83 0.5 C7.74 -0.47, 6.75 0.81, 6.99 1.02 M6.97 2.31 C9.05 1.3, 11.13 -0.23, 13.39 0.22 C15.64 0.68, 18.94 2.83, 20.52 5.06 C22.1 7.29, 23.2 11.23, 22.87 13.62 C22.55 16, 20.24 18.05, 18.55 19.37 C16.85 20.69, 14.98 21.1, 12.72 21.55 C10.47 22, 7.13 23.05, 5.02 22.07 C2.9 21.1, 0.9 18.39, 0.01 15.69 C-0.88 12.99, -1.24 8.18, -0.32 5.87 C0.59 3.56, 4.11 2.65, 5.5 1.83 C6.89 1.01, 7.74 0.72, 8.02 0.95" stroke="none" stroke-width="0" fill="#12b886"></path><path d="M15.89 1.37 C18.33 2.06, 21.12 4.08, 22.25 6.15 C23.38 8.22, 23.36 11.51, 22.66 13.8 C21.97 16.09, 19.98 18.38, 18.09 19.9 C16.19 21.42, 13.49 22.95, 11.31 22.93 C9.14 22.9, 6.73 21.19, 5.03 19.77 C3.34 18.35, 1.64 16.8, 1.16 14.39 C0.67 11.98, 1.15 7.69, 2.13 5.32 C3.11 2.96, 4.63 0.92, 7.03 0.2 C9.44 -0.52, 14.47 0.72, 16.57 1 C18.67 1.28, 19.48 1.51, 19.63 1.87 M15.56 -1 C18.12 -0.48, 20.77 1.72, 22.21 4.16 C23.65 6.61, 24.51 10.92, 24.18 13.65 C23.84 16.37, 21.99 19.16, 20.18 20.51 C18.38 21.87, 15.95 21.63, 13.33 21.78 C10.7 21.93, 6.73 22.63, 4.44 21.38 C2.14 20.14, -0.1 16.95, -0.42 14.29 C-0.75 11.63, 1.14 7.7, 2.51 5.43 C3.87 3.17, 5.53 1.5, 7.79 0.7 C10.05 -0.1, 15.05 0.87, 16.07 0.62 C17.09 0.37, 14.21 -1.01, 13.91 -0.78" stroke="#000000" stroke-width="2" fill="none"></path></g><g stroke-linecap="round"><g transform="translate(242 112.19526287494011) rotate(0 55.76127154281869 -8.365145025067477)"><path d="M-2.22 -2.28 C16.86 -5.22, 94.56 -12.39, 113.74 -14.89 M1.78 2.65 C20.53 0.04, 93.23 -16.46, 111.34 -19.38" stroke="#000000" stroke-width="2" fill="none"></path></g><g transform="translate(242 112.19526287494011) rotate(0 55.76127154281869 -8.365145025067477)"><path d="M82.42 -4.27 C93.74 -9.34, 97.39 -11.4, 112.86 -21.35 M84.95 -3.6 C93.22 -10.36, 103.87 -15.57, 112.21 -20.66" stroke="#000000" stroke-width="2" fill="none"></path></g><g transform="translate(242 112.19526287494011) rotate(0 55.76127154281869 -8.365145025067477)"><path d="M78.44 -24.4 C91.25 -23.91, 95.98 -20.47, 112.86 -21.35 M80.97 -23.73 C90.51 -23.78, 102.47 -22.34, 112.21 -20.66" stroke="#000000" stroke-width="2" fill="none"></path></g></g></svg>