<svg version="1.1" xmlns="http://www.w3.org/2000/svg" viewBox="0 0 1065.050787165171 247.04351581471263" width="1065.050787165171" height="247.04351581471263">
  <!-- svg-source:excalidraw -->
  
  <defs>
    <style>
      @font-face {
        font-family: "Virgil";
        src: url("https://excalidraw.com/Virgil.woff2");
      }
      @font-face {
        font-family: "Cascadia";
        src: url("https://excalidraw.com/Cascadia.woff2");
      }
    </style>
  </defs>
  <rect x="0" y="0" width="1065.050787165171" height="247.04351581471263" fill="#ffffff"></rect><g stroke-linecap="round"><g transform="translate(150.04846785747645 -15.348509216861999) rotate(89.99999999999994 0.3063480198693469 138.87026712421832)"><path d="M0.42 -0.44 C30.04 20.08, 58.02 33.64, 111.55 69.35 M1.39 -1.48 C34.96 22.98, 73.53 43.2, 112.96 67.86 M110.09 65.25 C113.31 102.86, 116.09 140.64, 111.11 205.41 M113.13 70.42 C112.67 106.49, 112.22 145.16, 112.91 208.13 M108.38 211.29 C83.78 223.41, 58.15 234.75, 0.76 277.48 M111.13 208.56 C82.66 223.09, 53.33 242.05, 0.07 275.56 M1.67 279.23 C-36.44 248.92, -72.28 229.41, -110.24 205.59 M1.64 278.28 C-42.75 248.26, -83.81 223.66, -112.87 206.16 M-111.07 206.88 C-115.29 172.25, -112.26 125.79, -109.21 70.16 M-112.25 209.44 C-111.36 177.49, -112.78 148.42, -113.22 69.26 M-108.45 65.45 C-91.79 58.57, -63.19 39.46, -2.21 -1.38 M-112.96 70.75 C-69.21 42.73, -23.69 15.24, -0.59 1.35" stroke="#000000" stroke-width="2" fill="none"></path></g></g><g transform="translate(86.55078716517096 107.64910179121522) rotate(0 58 18)"><text x="58" y="26" font-family="Virgil, Segoe UI Emoji" font-size="28px" fill="#000000" text-anchor="middle" style="white-space: pre;" direction="ltr">DOMAIN</text></g><g stroke-linecap="round"><g transform="translate(210.55078716517096 29.649101791215216) rotate(0 19.646973343962543 98.11006268226518)"><path d="M-0.31 0.16 C9.44 15.52, 59.98 60.59, 59.51 92.47 C59.04 124.36, 9.13 178.79, -3.11 191.49 C-15.35 204.19, -19.33 184.53, -13.93 168.7 C-8.54 152.87, 29.44 120.47, 29.25 96.51 C29.06 72.55, -10.03 40.61, -15.06 24.92 C-20.09 9.23, -3.76 6.65, -0.91 2.36 M-3.92 -2.23 C5.5 13.45, 57.01 62.52, 58.09 95.28 C59.18 128.03, 14.48 181.59, 2.58 194.32 C-9.32 207.06, -18.46 187.69, -13.31 171.68 C-8.16 155.67, 34.47 121.87, 33.47 98.25 C32.47 74.64, -13.75 46.28, -19.31 29.98 C-24.87 13.68, -3.22 5.81, 0.11 0.47" stroke="#000000" stroke-width="2" fill="none"></path></g></g><g transform="translate(212.55078716517096 74.64910179121522) rotate(54.11786275379577 26 18)"><text x="26" y="26" font-family="Virgil, Segoe UI Emoji" font-size="28px" fill="#000000" text-anchor="middle" style="white-space: pre;" direction="ltr">SPI</text></g><g transform="translate(204.55078716517096 154.64910179121523) rotate(124.07719528013068 26 18)"><text x="26" y="26" font-family="Virgil, Segoe UI Emoji" font-size="28px" fill="#000000" text-anchor="middle" style="white-space: pre;" direction="ltr">SPI</text></g><g stroke-linecap="round"><g transform="translate(445.5507871651712 118.64910179121522) rotate(0 -59.59264765679853 0.8495904046289464)"><path d="M-1.53 -2.11 C-21.47 -2.35, -100.05 0.01, -119.51 0.07 M2.84 2.92 C-17.54 3.03, -101.6 4.15, -122.03 3.73" stroke="#000000" stroke-width="2" fill="none"></path></g><g transform="translate(445.5507871651712 118.64910179121522) rotate(0 -59.59264765679853 0.8495904046289464)"><path d="M-96.84 -7.23 C-102.24 -2.69, -113.45 1.61, -119.25 0.76 M-94.42 -5.83 C-102.58 -4.23, -108.2 -1.91, -123.12 1.74" stroke="#000000" stroke-width="2" fill="none"></path></g><g transform="translate(445.5507871651712 118.64910179121522) rotate(0 -59.59264765679853 0.8495904046289464)"><path d="M-96.86 13.29 C-102.47 11.57, -113.68 9.58, -119.25 0.76 M-94.44 14.69 C-102.94 10.8, -108.55 7.64, -123.12 1.74" stroke="#000000" stroke-width="2" fill="none"></path></g></g><g stroke-linecap="round" transform="translate(478.55078716517096 60.649101791215216) rotate(0 94.5 53)"><path d="M3.87 0.7 L185.77 3.07 L189.91 102.45 L0.81 105.72" stroke="none" stroke-width="0" fill="#12b886"></path><path d="M-0.73 0.1 C67.9 0.35, 135.96 5.62, 186.03 -1.31 M0.67 -1.39 C71.78 1.65, 144.02 0.02, 187 0.15 M187.82 -2.34 C189.35 27.45, 191.43 55.14, 191.34 105.76 M189.63 0.39 C186.97 31.68, 187.52 62.72, 190.77 104.79 M189.76 106.48 C126.71 103.73, 64.42 100.29, 1.63 104.44 M189.07 104.57 C141.31 104.2, 91.21 106.88, 1.11 105.45 M2.04 103.84 C2.98 86.89, -1.97 66.71, 2.57 -0.87 M-0.59 104.41 C-0.39 84.74, 1.59 63.1, -0.43 -1.16" stroke="#000000" stroke-width="2" fill="none"></path></g><g transform="translate(493.55078716517096 96.64910179121522) rotate(0 69 18)"><text x="69" y="26" font-family="Virgil, Segoe UI Emoji" font-size="28px" fill="#000000" text-anchor="middle" style="white-space: pre;" direction="ltr">ADAPTER</text></g><g stroke-linecap="round"><g transform="translate(699.550787165171 115.14917147544332) rotate(0 63.75546642363065 -0.18058793347178614)"><path d="M-0.09 -0.33 C21.11 -0.32, 104.72 2.79, 125.5 2.61 M-3.58 -2.98 C18.7 -2.48, 108.81 -1.64, 131.09 -0.98" stroke="#000000" stroke-width="2" fill="none"></path></g><g transform="translate(699.550787165171 115.14917147544332) rotate(0 63.75546642363065 -0.18058793347178614)"><path d="M102.24 6.63 C113.08 2.99, 114.19 5.03, 129.66 -0.62 M101.68 10.6 C111.51 5.84, 117 5.81, 130.95 -0.29" stroke="#000000" stroke-width="2" fill="none"></path></g><g transform="translate(699.550787165171 115.14917147544332) rotate(0 63.75546642363065 -0.18058793347178614)"><path d="M102.61 -13.89 C113.73 -12.61, 114.75 -5.64, 129.66 -0.62 M102.05 -9.92 C111.48 -9.87, 116.89 -5.09, 130.95 -0.29" stroke="#000000" stroke-width="2" fill="none"></path></g></g><g stroke-linecap="round" transform="translate(866.050787165171 57.14917147544334) rotate(0 94.5 53)"><path d="M-0.5 -0.31 C53.51 -1.97, 109.17 0.29, 189.77 -0.69 M0.85 1.48 C68.83 -3.35, 135.27 -4.25, 188.96 -0.42 M192.45 -0.38 C188.89 28.58, 185.49 56.59, 188.82 108.47 M187.97 -0.06 C189.75 35.03, 188.86 68.15, 188.14 105.94 M191.17 109.61 C128.66 107.96, 61.7 108.52, -1.12 103.48 M188.24 106.73 C135.72 107.96, 83.17 105.79, -0.95 107.13 M1.99 103.32 C0.01 70.38, 0.39 42.95, -3.27 2.71 M1.58 104.45 C0.85 71.68, -1.38 33.83, -0.61 1.86" stroke="#000000" stroke-width="2" fill="none"></path></g><g transform="translate(871.050787165171 74.14917147544334) rotate(0 89.5 36)"><text x="89.5" y="26" font-family="Virgil, Segoe UI Emoji" font-size="28px" fill="#000000" text-anchor="middle" style="white-space: pre;" direction="ltr">REST API</text><text x="89.5" y="62" font-family="Virgil, Segoe UI Emoji" font-size="28px" fill="#000000" text-anchor="middle" style="white-space: pre;" direction="ltr">(example)</text></g></svg>